<?xml version="1.0" encoding="utf-8"?>
<!-- Generator: Adobe Illustrator 24.2.3, SVG Export Plug-In . SVG Version: 6.00 Build 0)  -->
<svg version="1.1" id="Layer_1" focusable="false" xmlns="http://www.w3.org/2000/svg" xmlns:xlink="http://www.w3.org/1999/xlink"
	 x="0px" y="0px" viewBox="0 0 512 512" style="enable-background:new 0 0 512 512;" xml:space="preserve">
<style type="text/css">
	.st0{opacity:0.3;}
</style>
<path d="M219.7,276.7c0.3,6.4,5.6,11.3,12,11.3h48.5c6.4,0,11.6-5,12-11.3l7.4-136c0.2-4-1.5-7.6-4.4-9.9c-2.1-1.7-4.7-2.7-7.6-2.7
	h-63.4c-3.4,0-6.5,1.4-8.7,3.7c-2.2,2.3-3.5,5.5-3.3,8.9h0L219.7,276.7z"/>
<path d="M299.2,336.2c-0.3-0.7-0.5-1.4-0.8-2.1c-4.7-11-13.5-19.8-24.5-24.5c-0.7-0.3-1.4-0.6-2.1-0.8c-3.5-1.3-7.2-2.2-11.1-2.6
	c-1.5-0.2-3.1-0.2-4.7-0.2c-0.8,0-1.6,0-2.4,0.1c-18,0.9-33.3,12.2-40,28c-0.3,0.7-0.6,1.4-0.8,2.1c-1.3,3.5-2.2,7.2-2.6,11.1
	c-0.2,1.5-0.2,3.1-0.2,4.7c0,0.8,0,1.6,0.1,2.4c1.2,23.5,20.1,42.4,43.6,43.6c0.8,0,1.6,0.1,2.4,0.1c1.6,0,3.2-0.1,4.7-0.2
	c3.9-0.4,7.6-1.3,11.1-2.6c0.7-0.3,1.4-0.5,2.1-0.8c15.8-6.7,27.1-22,28-40c0-0.8,0.1-1.6,0.1-2.4c0-1.6-0.1-3.2-0.2-4.7
	C301.4,343.4,300.5,339.7,299.2,336.2z"/>
<path class="st0" d="M504,256c0,137-111,248-248,248S8,393,8,256C8,119.1,119,8,256,8S504,119.1,504,256z M256,306
	c-25.4,0-46,20.6-46,46s20.6,46,46,46s46-20.6,46-46S281.4,306,256,306z M212.3,140.7l7.4,136c0.3,6.4,5.6,11.3,12,11.3h48.5
	c6.4,0,11.6-5,12-11.3l7.4-136c0.2-4-1.5-7.6-4.4-9.9c-2.1-1.7-4.7-2.7-7.6-2.7h-63.4c-3.4,0-6.5,1.4-8.7,3.7
	C213.4,134.1,212.1,137.2,212.3,140.7L212.3,140.7z"/>
</svg>
