
<svg x="0px" y="0px"
	 viewBox="0 0 640 512" xml:space="preserve">

	<path opacity="0.3" d="M223.1,256c70.7,0,128-57.3,128-128S293.8,0,223.1,0C153.3,0,96,57.3,96,128S153.3,256,223.1,256z"/>
	<path opacity="0.3" d="M274.7,304H173.3C77.6,304,0,381.7,0,477.4C0,496.5,15.5,512,34.7,512h286.4c-1.2-5.5-1.4-11.3-0.3-17
		l14.3-71.4c1.9-9.7,6.7-18.6,13.7-25.6l45.7-45.7C363.3,322.4,321.2,304,274.7,304z"/>
	<path opacity="0.7" d="M371.4,420.6c-2.5,2.5-4.2,5.7-4.9,9.2l-14.3,71.4c-1.3,6.3,4.3,11.8,10.6,10.6l71.4-14.3
		c3.5-0.7,6.7-2.4,9.2-4.9l125.3-125.3l-72-72L371.4,420.6z"/>
	<path opacity="0.7" d="M629.5,255.7l-21.1-21.1c-14.1-14.1-36.8-14.1-50.9,0l-38.1,38.1l72,72l38.1-38.1
		C643.5,292.5,643.5,269.7,629.5,255.7z"/>

</svg>
