<?xml version="1.0" encoding="utf-8"?>
<!-- Generator: Adobe Illustrator 24.2.3, SVG Export Plug-In . SVG Version: 6.00 Build 0)  -->
<svg version="1.1" id="Layer_1" xmlns="http://www.w3.org/2000/svg" xmlns:xlink="http://www.w3.org/1999/xlink" x="0px" y="0px"
	 viewBox="0 0 24 24" style="enable-background:new 0 0 24 24;" xml:space="preserve">
<style type="text/css">
	.st0{opacity:0.3;enable-background:new    ;}
</style>
<path class="st0" d="M20,15H4c-1.1,0-2-0.9-2-2V7c0-0.6,0.4-1,1-1h18c0.6,0,1,0.4,1,1v6C22,14.1,21.1,15,20,15z M13,12h-2
	c-0.5,0-1,0.4-1,1v3c0,0.5,0.4,1,1,1h2c0.6,0,1-0.4,1-1v-3C14,12.4,13.6,12,13,12z"/>
<path d="M14,6V5h-4v1H8V5c0-1.1,0.9-2,2-2h4c1.1,0,2,0.9,2,2v1H14z M20,15h-6v1c0,0.6-0.5,1-1,1h-2c-0.5,0-1-0.4-1-1v-1H4
	c-0.4,0-0.7-0.1-1-0.3V18c0,1.1,0.9,2,2,2h14c1.1,0,2-0.9,2-2v-3.3C20.7,14.9,20.4,15,20,15z"/>
</svg>
