<?xml version="1.0" encoding="utf-8"?>
<!-- Generator: Adobe Illustrator 24.2.3, SVG Export Plug-In . SVG Version: 6.00 Build 0)  -->
<svg version="1.1" id="Layer_1" xmlns="http://www.w3.org/2000/svg" xmlns:xlink="http://www.w3.org/1999/xlink" x="0px" y="0px"
	 viewBox="0 0 448 512" enable-background="new 0 0 448 512" xml:space="preserve">
<g>
	<path d="M400,64h-48V32c0-17.7-14.3-32-32-32s-32,14.3-32,32v32H160V32c0-17.7-14.3-32-32-32S96,14.3,96,32v32H48
		C21.5,64,0,85.5,0,112v48h448v-48C448,85.5,426.5,64,400,64z"/>
	<path opacity="0.5" d="M0,464c0,26.5,21.5,48,48,48h352c26.5,0,48-21.5,48-48V192H0V464z M119,319c9.4-9.3,24.6-9.3,33.1,0
		l47.9,47.1l95-95.1c9.4-9.3,24.6-9.3,33.1,0c10.2,9.4,10.2,24.6,0,33.1l-112,112c-8.5,10.2-23.7,10.2-33.1,0l-64-64
		C109.7,343.6,109.7,328.4,119,319z"/>
</g>
</svg>
