<?xml version="1.0" encoding="utf-8"?>
<!-- Generator: Adobe Illustrator 24.2.3, SVG Export Plug-In . SVG Version: 6.00 Build 0)  -->
<svg version="1.1" id="Layer_1" focusable="false" xmlns="http://www.w3.org/2000/svg" xmlns:xlink="http://www.w3.org/1999/xlink"
	 x="0px" y="0px" viewBox="0 0 576 512" style="enable-background:new 0 0 576 512;" xml:space="preserve">
<style type="text/css">
	.st0{opacity:0.3;}
</style>
<g>
	<path class="st0" d="M0,432c0,26.5,21.5,48,48,48h480c26.5,0,48-21.5,48-48V256H0V432z M192,364c0-6.6,5.4-12,12-12h136
		c6.6,0,12,5.4,12,12v40c0,6.6-5.4,12-12,12H204c-6.6,0-12-5.4-12-12V364z M64,364c0-6.6,5.4-12,12-12h72c6.6,0,12,5.4,12,12v40
		c0,6.6-5.4,12-12,12H76c-6.6,0-12-5.4-12-12V364z"/>
	<path class="st0" d="M528,32H48C21.5,32,0,53.5,0,80v48h576V80C576,53.5,554.5,32,528,32z"/>
</g>
<rect y="128" width="576" height="128"/>
</svg>
