<?xml version="1.0" encoding="utf-8"?>
<!-- Generator: Adobe Illustrator 24.2.3, SVG Export Plug-In . SVG Version: 6.00 Build 0)  -->
<svg version="1.1" id="Layer_1" xmlns="http://www.w3.org/2000/svg" xmlns:xlink="http://www.w3.org/1999/xlink" x="0px" y="0px"
	 viewBox="0 0 576 512" enable-background="new 0 0 576 512" xml:space="preserve">
<g>
	<path d="M544,224C544,100.3,443.7,0,320,0c-9.9,0-16,7.6-16,16.6V240h223.4C536.4,240,544,233,544,224z"/>
	<path opacity="0.5" d="M256,288V49.6c0-9.3-7.8-16.6-17.9-15.4C122.1,50.3,32,150.7,32,272c0,132.6,107.5,240,240,240
		c51.8,0,99.8-16.4,139-44.3c7.7-5.5,8.2-16.5,1.5-23.2L256,288z"/>
	<path opacity="0.75" d="M558.4,288H320l158.7,158.7c5.8,5.8,15.2,5.4,21.2,0.6c39.2-36.7,66.2-86.4,73.9-142.3
		C575,295.8,567.6,288,558.4,288z"/>
</g>
</svg>
