<?xml version="1.0" encoding="utf-8"?>
<!-- Generator: Adobe Illustrator 24.2.3, SVG Export Plug-In . SVG Version: 6.00 Build 0)  -->
<svg version="1.1" id="Layer_1" xmlns="http://www.w3.org/2000/svg" xmlns:xlink="http://www.w3.org/1999/xlink" x="0px" y="0px"
	 viewBox="0 0 512 512" enable-background="new 0 0 512 512" xml:space="preserve">
<g>
	<path opacity="0.5" d="M480,416H80c-8.8,0-16-7.2-16-16V64c0-17.7-14.3-32-32-32S0,46.3,0,64v336c0,44.2,35.8,80,80,80h400
		c17.7,0,32-14.3,32-32S497.7,416,480,416z"/>
	<path d="M150.6,310.6l89.4-89.3l57.4,57.3c12.5,12.5,32.7,12.5,45.2,0l128-128c12.5-12.5,12.5-32.7,0-45.2
		c-12.5-12.5-32.7-12.5-45.2,0L320,210.7l-57.4-57.3c-12.5-12.5-32.7-12.5-45.2,0l-112,112c-12.5,12.5-12.5,32.7,0,45.2
		C117.9,323.1,138.1,323.1,150.6,310.6z"/>
</g>
</svg>
