<?xml version="1.0" encoding="utf-8"?>
<!-- Generator: Adobe Illustrator 24.2.3, SVG Export Plug-In . SVG Version: 6.00 Build 0)  -->
<svg version="1.1" id="Layer_1" xmlns="http://www.w3.org/2000/svg" xmlns:xlink="http://www.w3.org/1999/xlink" x="0px" y="0px"
	 viewBox="0 0 24 24" enable-background="new 0 0 24 24" xml:space="preserve">
<path d="M13,5.9c2.8,0.5,5,2.9,5,5.9c0,0.7-0.1,1.4-0.4,2.1l2.5,1.4c0.5,0.3,1.3,0.1,1.5-0.5c0.3-0.9,0.5-1.9,0.5-3
	c0-4.8-3.3-8.7-7.8-9.8c-0.6-0.1-1.2,0.3-1.2,1v2.9H13z"/>
<g>
	<path opacity="0.3" enable-background="new    " d="M19.1,17l-2.5-1.4c-1.1,1.4-2.8,2.2-4.6,2.2s-3.5-0.9-4.6-2.2L4.9,17
		c-0.5,0.3-0.6,1-0.2,1.5c1.8,2,4.4,3.2,7.3,3.2s5.5-1.2,7.3-3.2C19.8,18.1,19.7,17.3,19.1,17z"/>
	<path opacity="0.5" enable-background="new    " d="M6,11.8c0-3,2.2-5.4,5-5.9V3c0-0.6-0.6-1.1-1.2-1C5.3,3,2,7,2,11.8
		c0,1,0.2,2,0.5,3c0.2,0.6,0.9,0.9,1.5,0.5l2.4-1.4C6.2,13.2,6,12.5,6,11.8z"/>
</g>
</svg>
