<?xml version="1.0" encoding="utf-8"?>
<!-- Generator: Adobe Illustrator 24.2.3, SVG Export Plug-In . SVG Version: 6.00 Build 0)  -->
<svg version="1.1" id="Layer_1" xmlns="http://www.w3.org/2000/svg" xmlns:xlink="http://www.w3.org/1999/xlink" x="0px" y="0px"
	 viewBox="0 0 640 512" enable-background="new 0 0 640 512" xml:space="preserve">
<g>
	<path opacity="0.5" d="M392.8,1.2c-17-4.9-34.7,5-39.6,22l-128,448c-4.8,17,5,34.7,22,39.6c17,4.8,34.7-5,39.6-22l128-448
		C419.6,23.8,409.8,6.1,392.8,1.2z"/>
	<path d="M630.6,233.4l-112-112c-12.5-12.5-32.7-12.5-45.2,0c-12.5,12.5-12.5,32.7,0,45.2l89.3,89.4l-89.3,89.4
		c-12.5,12.5-12.5,32.7,0,45.2s32.7,12.5,45.2,0l112-112C643.1,266.1,643.1,245.9,630.6,233.4z"/>
	<path d="M166.6,121.4c-12.5-12.5-32.7-12.5-45.2,0l-112,112c-12.5,12.5-12.5,32.7,0,45.2l112,112c12.5,12.5,32.7,12.5,45.2,0
		s12.5-32.7,0-45.2L77.3,256l89.4-89.4C179.1,154.1,179.1,133.9,166.6,121.4z"/>
</g>
</svg>
