<?xml version="1.0" encoding="utf-8"?>
<!-- Generator: Adobe Illustrator 24.2.3, SVG Export Plug-In . SVG Version: 6.00 Build 0)  -->
<svg version="1.1" id="Layer_1" focusable="false" xmlns="http://www.w3.org/2000/svg" xmlns:xlink="http://www.w3.org/1999/xlink"
	 x="0px" y="0px" viewBox="0 0 512 512" style="enable-background:new 0 0 512 512;" xml:space="preserve">
<path d="M480.8,84.4l-208-78C262,2.2,250,2.2,239.1,6.3l-208,78c-18.7,7-31.1,25-31.1,45v225.1c0,18.2,10.3,34.8,26.5,42.9l208,104
	c13.5,6.8,29.4,6.8,42.9,0l208-104c16.3-8.1,26.5-24.8,26.5-42.9V129.3C511.9,109.3,499.5,91.4,480.8,84.4z M448,344.4l-160,80
	V275.5l160-65V344.4z M448,141.5l-192,78l-192-78v-1.1c0,0,192-72,192-72l192,72V141.5z"/>
</svg>
