<?xml version="1.0" encoding="utf-8"?>
<!-- Generator: Adobe Illustrator 24.2.3, SVG Export Plug-In . SVG Version: 6.00 Build 0)  -->
<svg version="1.1" id="Layer_1" focusable="false" xmlns="http://www.w3.org/2000/svg" xmlns:xlink="http://www.w3.org/1999/xlink"
	 x="0px" y="0px" viewBox="0 0 576 512" style="enable-background:new 0 0 576 512;" xml:space="preserve">
<style type="text/css">
	.st0{opacity:0.3;}
</style>
<g>
	<path d="M528,256H48c-26.5,0-48,21.5-48,48v96c0,26.5,21.5,48,48,48h480c26.5,0,48-21.5,48-48v-96C576,277.5,554.5,256,528,256z
		 M384,384c-17.7,0-32-14.3-32-32c0-17.7,14.3-32,32-32c17.7,0,32,14.3,32,32C416,369.7,401.7,384,384,384z M480,384
		c-17.7,0-32-14.3-32-32c0-17.7,14.3-32,32-32c17.7,0,32,14.3,32,32C512,369.7,497.7,384,480,384z"/>
	<path class="st0" d="M528,224c10.6,0,21,2.1,30.8,6.2L462.3,85.4C453.3,72,438.4,64,422.3,64H153.7c-16,0-31,8-39.9,21.4
		L17.2,230.2C27,226.1,37.4,224,48,224H528z"/>
</g>
</svg>
