<?xml version="1.0" encoding="utf-8"?>
<!-- Generator: Adobe Illustrator 24.2.3, SVG Export Plug-In . SVG Version: 6.00 Build 0)  -->
<svg version="1.1" id="Layer_1" xmlns="http://www.w3.org/2000/svg" xmlns:xlink="http://www.w3.org/1999/xlink" x="0px" y="0px"
	 viewBox="0 0 24 24" enable-background="new 0 0 24 24" xml:space="preserve">
<g>
	<path d="M10,3H4C3.4,3,3,3.4,3,4v8c0,0.6,0.4,1,1,1h6c0.6,0,1-0.4,1-1V4C11,3.4,10.6,3,10,3z"/>
	<path opacity="0.6" d="M10,15H4c-0.6,0-1,0.4-1,1v4c0,0.6,0.4,1,1,1h6c0.6,0,1-0.4,1-1v-4C11,15.4,10.6,15,10,15z"/>
	<path opacity="0.4" d="M20,12h-6c-0.6,0-1,0.4-1,1v7c0,0.6,0.4,1,1,1h6c0.6,0,1-0.4,1-1v-7C21,12.4,20.6,12,20,12z"/>
	<path opacity="0.75" d="M20,3h-6c-0.6,0-1,0.4-1,1v5c0,0.6,0.4,1,1,1h6c0.6,0,1-0.4,1-1V4C21,3.4,20.6,3,20,3z"/>
</g>
</svg>
