<?xml version="1.0" encoding="utf-8"?>
<!-- Generator: Adobe Illustrator 24.2.3, SVG Export Plug-In . SVG Version: 6.00 Build 0)  -->
<svg version="1.1" id="Layer_1" focusable="false" xmlns="http://www.w3.org/2000/svg" xmlns:xlink="http://www.w3.org/1999/xlink"
	 x="0px" y="0px" viewBox="0 0 512 512" style="enable-background:new 0 0 512 512;" xml:space="preserve">
<style type="text/css">
	.st0{opacity:0.5;}
	.st1{opacity:0.3;}
</style>
<g>
	<path class="st0" d="M488,32H296c-13.3,0-24,10.7-24,24v160c0,13.3,10.7,24,24,24h192c13.3,0,24-10.7,24-24V56
		C512,42.7,501.3,32,488,32z"/>
	<path d="M216,32H24C10.7,32,0,42.7,0,56v160c0,13.3,10.7,24,24,24h192c13.3,0,24-10.7,24-24V56C240,42.7,229.3,32,216,32z"/>
	<path class="st0" d="M216,272H24c-13.3,0-24,10.7-24,24v160c0,13.3,10.7,24,24,24h192c13.3,0,24-10.7,24-24V296
		C240,282.7,229.3,272,216,272z"/>
	<path class="st1" d="M488,272H296c-13.3,0-24,10.7-24,24v160c0,13.3,10.7,24,24,24h192c13.3,0,24-10.7,24-24V296
		C512,282.7,501.3,272,488,272z"/>
</g>
</svg>
