<svg x="0px" y="0px"
	viewBox="0 0 24 24" xml:space="preserve">
	<path opacity="0.3" enable-background="new    " d="M19,22H5c-0.6,0-1-0.4-1-1V3c0-0.6,0.4-1,1-1h9l6,6v13C20,21.6,19.6,22,19,22z
		M11.7,17.7L16,14c0.4-0.4,0.4-1.1,0-1.5s-0.6,0.1-1,0.5l-4,3l-2-1c-0.4-0.4-0.6-0.9-1-0.5c-0.4,0.4,0.1,1.1,0.5,1.5l1.8,1.7
		c0.2,0.2,0.5,0.3,0.7,0.3S11.5,17.9,11.7,17.7z"/>
	<path d="M10.4,15.4l-1.2-1.2c-0.4-0.4-1.1-0.4-1.5,0c-0.4,0.4-0.4,1.1,0,1.5l2.5,2.5c0.4,0.4,1,0.4,1.4,0l4.5-4.5
		c0.4-0.4,0.4-1.1,0-1.5s-1.1-0.4-1.5,0l-3.2,3.2C11.3,15.7,10.7,15.7,10.4,15.4z"/>
	<path d="M15,8h5l-6-6v5C14,7.6,14.4,8,15,8z"/>
</svg>
