<?xml version="1.0" encoding="utf-8"?>
<!-- Generator: Adobe Illustrator 24.2.3, SVG Export Plug-In . SVG Version: 6.00 Build 0)  -->
<svg version="1.1" id="Layer_1" xmlns="http://www.w3.org/2000/svg" xmlns:xlink="http://www.w3.org/1999/xlink" x="0px" y="0px"
	 viewBox="0 0 512 512" enable-background="new 0 0 512 512" xml:space="preserve">
<g>
	<path opacity="0.5" d="M481.9,270.1c-9-9-21.2-14.1-33.9-14.1H64c-12.7,0-24.9,5.1-33.9,14.1S16,291.3,16,304s5.1,24.9,14.1,33.9
		S51.3,352,64,352h384c12.7,0,24.9-5.1,33.9-14.1S496,316.7,496,304S490.9,279.1,481.9,270.1z"/>
	<path d="M464,384H48c-4.2,0-8.3,1.7-11.3,4.7S32,395.8,32,400v16c0,16.1,6.7,33.3,18.8,45.3C62.8,473.3,79,480,96,480h320
		c16.1,0,33.3-6.7,45.3-18.7S480,432.1,480,416v-16c0-4.2-1.7-8.3-4.7-11.3S468.2,384,464,384z"/>
	<path d="M39,211.6c3.1,3.9,7,7,11.4,9.2c4.5,2.1,9.3,3.2,14.3,3.2h382.6c5,0,9.9-1.1,14.3-3.2c4.5-2.2,7.5-5.3,11.4-9.2
		c3.1-3.9,5.2-8.4,6.2-13.2c1.1-4.9,1-9.9-0.2-14.7C457,97,365.5,32,256,32S55,97,33,183.7c-1.2,4.8-1.3,9.8-0.2,14.7
		C33.8,203.2,35.9,207.7,39,211.6z M372.7,116.7c3-3,7.1-5.6,11.3-5.6c3.2,0,6.3,1.8,8.9,3.6c2.6,1.8,4.7,3.4,5.9,7.2
		c0.3,2.9,1.5,6.1,0.9,9.2c-0.6,3.1-2.1,6-4.4,8.2c-2.2,2.3-5.1,3.8-8.2,4.4c-3.1,0.6-6.3-0.6-9.2-0.9c-3.8-1.2-5.4-3.3-7.2-5.9
		c-1.8-2.6-2.7-5.7-2.7-8.9C368,123.8,369.7,119.7,372.7,116.7z M244.7,84.7c3-3,7.1-5.6,11.3-5.6c3.2,0,6.3,1.8,8.9,3.6
		c2.6,1.8,4.7,4.3,5.9,7.2c0.3,2.9,1.5,6.1,0.9,9.2c-0.6,3.1-2.1,6-4.4,8.2c-2.2,2.3-5.1,3.8-8.2,4.4c-3.1,0.6-6.3-0.6-9.2-0.9
		c-3.8-1.2-5.4-3.3-7.2-5.9c-1.8-2.6-2.7-5.7-2.7-8.9C240,91.8,241.7,87.7,244.7,84.7z M116.7,116.7c3-3,7.1-5.6,11.3-5.6
		c3.2,0,6.3,1.8,8.9,3.6c2.6,1.8,4.7,3.4,5.9,7.2c0.3,2.9,1.5,6.1,0.9,9.2c-0.6,3.1-2.1,6-4.4,8.2c-2.2,2.3-5.1,3.8-8.2,4.4
		c-3.1,0.6-6.3-0.6-9.2-0.9c-3.8-1.2-5.4-3.3-7.2-5.9c-1.8-2.6-2.7-5.7-2.7-8.9C112,123.8,113.7,119.7,116.7,116.7z"/>
</g>
</svg>
