<?xml version="1.0" encoding="utf-8"?>
<!-- Generator: Adobe Illustrator 24.2.3, SVG Export Plug-In . SVG Version: 6.00 Build 0)  -->
<svg version="1.1" id="Layer_1" xmlns="http://www.w3.org/2000/svg" xmlns:xlink="http://www.w3.org/1999/xlink" x="0px" y="0px"
	 viewBox="0 0 512 512" enable-background="new 0 0 512 512" xml:space="preserve">
<g>
	<path d="M480,128h-41.6c6.1-12.9,9.6-25.6,9.6-40c0-48.6-39.4-88-88-88h-2.2c-31.9,0-61.5,16.9-77.7,44.5l-24.1,41l-24.1-41
		C215.7,16.9,186.1,0,154.2,0H152c-48.6,0-88,39.4-88,88c0,14.4,3.5,27.1,9.6,40H32c-17.7,0-32,14.3-32,32v64c0,17.7,14.3,32,32,32
		h448c17.7,0,32-14.3,32-32v-64C512,142.3,497.7,128,480,128z M152,128c-22.1,0-40-17.9-40-40c0-22.1,17.9-40,40-40h2.2
		c14.9,0,28.7,7.9,36.3,20.8l34.8,59.2H152z M360,128h-73.3l34.8-59.2c7.6-12.9,21.4-20.8,36.3-20.8h2.2c22.1,0,40,17.9,40,40
		C400,110.1,382.1,128,360,128z"/>
	<path opacity="0.5" d="M32,464c0,26.5,21.5,48,48,48h144V288H32V464z"/>
	<path opacity="0.5" d="M288,512h144c26.5,0,48-21.5,48-48V288H288V512z"/>
</g>
</svg>
