<?xml version="1.0" encoding="utf-8"?>
<!-- Generator: Adobe Illustrator 24.2.3, SVG Export Plug-In . SVG Version: 6.00 Build 0)  -->
<svg version="1.1" id="Layer_1" xmlns="http://www.w3.org/2000/svg" xmlns:xlink="http://www.w3.org/1999/xlink" x="0px" y="0px"
	 viewBox="0 0 512 512" enable-background="new 0 0 512 512" xml:space="preserve">
<g>
	<path d="M500.3,7.3c-7.4-6.1-17.2-8.5-26.6-6.6l-160,32c-14.9,3-26.6,16.1-26.6,30.5v96c-34.4,0-64,22.4-64,48
		c0,27.4,29.6,48,64,48c36.2,0,64-20.6,64-48V90.2l96-19.2v56.1c-34.4,0-64,22.4-64,48c0,27.4,29.6,48,64,48
		c36.2,0,64.9-20.6,64.9-48v-144C512,22.4,507.7,13.3,500.3,7.3z"/>
	<path d="M239.1,303.1h-25.8l-11.8-16.9c-5.9-8.9-15.9-15.1-26.6-15.1h-61.8c-10.7,0-20.7,6.2-26.6,15.1l-11.8,16.9H47.1
		c-25.6,0-47.1,22.4-47.1,48v112c0,27.4,21.5,48,47.1,48h192c27.4,0,48-20.6,48-48v-112C287.1,325.5,266.5,303.1,239.1,303.1z
		 M143.1,455.1c-25.6,0-48-20.6-48-48c0-25.6,22.4-48,48-48c27.4,0,48,22.4,48,48C191.1,434.5,170.5,455.1,143.1,455.1z"/>
	<path opacity="0.5" d="M496,367.1h-55.7l38.4-88.8c2.9-6.9,0.7-14.9-5.3-19.2c-6-4.4-14.3-4.1-19.9,0l-128,112
		c-5.1,5.2-6.8,12.3-4.5,18.5c2.4,6.3,8.3,9.5,15,9.5h55.7l-38.4,90.6c-3,6.9-0.7,14.9,5.3,19.2c6,4.4,14.3,3.2,19.9-0.9l128-112
		c5.1-4.3,6.8-11.4,3.6-17.6C508.6,372.1,502.7,367.1,496,367.1z"/>
	<path opacity="0.5" d="M116.7,219.1c6,6.5,16.5,6.5,23,0l96.4-99.9c28-28.9,26.5-76.9-4.5-103.9c-28-23.5-68.9-19-93.9,6.5
		l-9.5,10.5l-10-10.5c-24.9-25.5-66.4-30-93.4-6.5c-31.5,27-33,74.9-5,103.9L116.7,219.1z"/>
</g>
</svg>
