<?xml version="1.0" encoding="utf-8"?>
<!-- Generator: Adobe Illustrator 24.2.3, SVG Export Plug-In . SVG Version: 6.00 Build 0)  -->
<svg version="1.1" id="Layer_1" xmlns="http://www.w3.org/2000/svg" xmlns:xlink="http://www.w3.org/1999/xlink" x="0px" y="0px"
	 viewBox="0 0 24 24" style="enable-background:new 0 0 24 24;" xml:space="preserve">
<g>
	<path d="M4,7L4,7c0,0.6,0.4,1,1,1h14c0.6,0,1-0.4,1-1v0c0-0.6-0.4-1-1-1H5C4.4,6,4,6.4,4,7z"/>
	<path d="M5,13h14c0.6,0,1-0.4,1-1v0c0-0.6-0.4-1-1-1H5c-0.6,0-1,0.4-1,1v0C4,12.6,4.4,13,5,13z"/>
	<path d="M5,18h14c0.6,0,1-0.4,1-1v0c0-0.6-0.4-1-1-1H5c-0.6,0-1,0.4-1,1v0C4,17.6,4.4,18,5,18z"/>
</g>
</svg>
