<?xml version="1.0" encoding="utf-8"?>
<!-- Generator: Adobe Illustrator 24.2.3, SVG Export Plug-In . SVG Version: 6.00 Build 0)  -->
<svg version="1.1" id="Layer_1" xmlns="http://www.w3.org/2000/svg" xmlns:xlink="http://www.w3.org/1999/xlink" x="0px" y="0px"
	 viewBox="0 0 384 512" enable-background="new 0 0 384 512" xml:space="preserve">
<g>
	<path d="M192,352c53,0,96-43,96-96h-80c-8.8,0-16-7.2-16-16s7.2-16,16-16h80v-32h-80c-8.8,0-16-7.2-16-16s7.2-16,16-16h80v-32.9
		h-80c-8.8,0-16-7.2-16-16s7.2-16,16-16l80,0.9c0-53-43-96-96-96c-53,0-96,43-96,96v160C96,309,138.1,352,192,352z"/>
	<path opacity="0.5" d="M344,192c-13.3,0-24,10.7-24,23.1V256c0,73.3-62,132.4-136.3,127.7C117.6,379.5,64,317.1,64,250.9v-35.8
		c0-12.4-10.8-23.1-24-23.1s-24,10.7-24,23.1v32.2c0,89.7,64,169.6,152,181.7v35h-40c-18.2,0-32.8,15.2-32,33.6
		c0.4,8.2,7.8,14.4,16,14.4h160c8.2,0,15.6-6.2,16-14.4c0.8-18.4-13.8-33.6-32-33.6h-40v-33.8c85.7-11.7,152-85.3,152-174.2v-40.9
		C368,202.7,357.3,192,344,192z"/>
</g>
</svg>
