<?xml version="1.0" encoding="utf-8"?>
<!-- Generator: Adobe Illustrator 24.2.3, SVG Export Plug-In . SVG Version: 6.00 Build 0)  -->
<svg version="1.1" id="Layer_1" xmlns="http://www.w3.org/2000/svg" xmlns:xlink="http://www.w3.org/1999/xlink" x="0px" y="0px"
	 viewBox="0 0 384 512" enable-background="new 0 0 384 512" xml:space="preserve">
<g>
	<path d="M320,32c0-17.6-14.4-32-32-32s-32,14.4-32,32v96h64V32z"/>
	<path opacity="0.5" d="M368,159.1H16c-8.9,0-16,7.1-16,16v32c0,8.9,7.1,16,16,16h16V256c0,76,53.5,141.6,128,156.8V512h64v-99.3
		C298.5,397.6,352,332,352,256v-32.9h16c8.9,0,16-7.1,16-16v-32C384,167.1,376.9,159.1,368,159.1z"/>
	<path d="M128,32c0-17.6-14.4-32-32-32S64,14.4,64,32v96h64V32z"/>
</g>
</svg>
