<svg x="0px" y="0px"
    viewBox="0 0 465.61 465.61" xml:space="preserve">
    <polygon points="51.559,308.815 156.795,414.051 201.013,385.202 80.407,264.596 	"/>
    <polygon points="198.667,87.057 113.175,91.204 22.961,181.418 84.654,201.069 	"/>
    <polygon points="284.192,442.648 374.406,352.434 378.553,266.942 264.541,380.955 	"/>
    <path opacity="0.5" d="M0.001,360.612L34,326.612l21.213,21.213l-33.999,33.999L0.001,360.612z"/>
    <path opacity="0.5" d="M104.992,465.61l-21.213-21.213l33.999-34l21.213,21.213L104.992,465.61z"/>
    <path opacity="0.5" d="M25.021,417.876l50.122-50.122l21.213,21.213l-50.122,50.122L25.021,417.876z"/>
    <circle cx="364.939" cy="100.67" r="15"/>
    <path opacity="0.3" d="M454.967,10.643c-58.835-22.219-127.811-9.648-175.172,37.712L93.194,234.956l137.46,137.459l186.601-186.601
    C464.615,138.454,477.185,69.478,454.967,10.643z M396.759,132.49c-17.574,17.573-46.066,17.573-63.64,0
    c-17.574-17.574-17.574-46.066,0-63.64s46.066-17.574,63.64,0C414.332,86.424,414.332,114.917,396.759,132.49z"/>
</svg>