<?xml version="1.0" encoding="utf-8"?>
<!-- Generator: Adobe Illustrator 24.2.3, SVG Export Plug-In . SVG Version: 6.00 Build 0)  -->
<svg version="1.1" id="Layer_1" xmlns="http://www.w3.org/2000/svg" xmlns:xlink="http://www.w3.org/1999/xlink" x="0px" y="0px"
	 viewBox="0 0 640 512" enable-background="new 0 0 640 512" xml:space="preserve">
<g>
	<path d="M128,480h1.1c41.5,0,81.3-11.9,116.1-31.9L352,384H128V480z"/>
	<path d="M245.2,63.9C210.4,43,170.6,32,129.1,32H128v96h224L245.2,63.9z"/>
	<path opacity="0.5" d="M635.2,241.6C591,182.7,525.3,160,456,160H168c-14.6-19.4-37.8-32-64-32h-8V32H80c-26.5,0-48,21.5-48,48v48
		h8c-22.1,0-40,17.9-40,40v176c0,22.1,17.9,40,40,40h-8v48c0,26.5,21.5,48,48,48h16v-96h8c26.2,0,49.4-12.6,64-32h288
		c69.3,0,135-22.7,179.2-81.6C641.6,261.9,641.6,250.1,635.2,241.6z M512,268.4c0,19.7-15.9,35.6-35.6,35.6c-3.3,0-4.4-2-4.4-4.4
		v-87.2c0-3.3,1.1-4.4,4.4-4.4c19.7,0,35.6,15.9,35.6,35.6V268.4z"/>
</g>
</svg>
