<?xml version="1.0" encoding="utf-8"?>
<!-- Generator: Adobe Illustrator 24.2.3, SVG Export Plug-In . SVG Version: 6.00 Build 0)  -->
<svg version="1.1" id="Layer_1" xmlns="http://www.w3.org/2000/svg" xmlns:xlink="http://www.w3.org/1999/xlink" x="0px" y="0px"
	 viewBox="0 0 576 512" enable-background="new 0 0 576 512" xml:space="preserve">
<g>
	<path opacity="0.5" d="M208,224h160c26.5,0,48-21.5,48-48V48c0-26.5-21.5-48-48-48h-48v80c0,8.8-7.2,16-16,16h-32
		c-8.8,0-16-7.2-16-16V0h-48c-26.5,0-48,21.5-48,48v128C160,202.5,181.5,224,208,224z"/>
	<path opacity="0.5" d="M208,288h-48v80c0,8.8-7.2,16-16,16h-32c-8.8,0-16-7.2-16-16v-80H48c-26.5,0-48,21.5-48,48v128
		c0,26.5,21.5,48,48,48h160c26.5,0,48-21.5,48-48V336C256,309.5,234.5,288,208,288z"/>
	<path opacity="0.5" d="M528,288h-48v80c0,8.8-7.2,16-16,16h-32c-8.8,0-16-7.2-16-16v-80h-48c-26.5,0-48,21.5-48,48v128
		c0,26.5,21.5,48,48,48h160c26.5,0,48-21.5,48-48V336C576,309.5,554.5,288,528,288z"/>
</g>
<rect x="95.9" y="288" stroke="#000000" stroke-width="1.2233" stroke-miterlimit="10" width="64.2" height="96"/>
<rect x="415.9" y="288" stroke="#000000" stroke-width="1.2233" stroke-miterlimit="10" width="64.2" height="96"/>
<rect x="255.9" stroke="#000000" stroke-width="1.2233" stroke-miterlimit="10" width="64.2" height="96"/>
</svg>
