<?xml version="1.0" encoding="utf-8"?>
<!-- Generator: Adobe Illustrator 24.2.3, SVG Export Plug-In . SVG Version: 6.00 Build 0)  -->
<svg version="1.1" id="Layer_1" xmlns="http://www.w3.org/2000/svg" xmlns:xlink="http://www.w3.org/1999/xlink" x="0px" y="0px"
	 viewBox="0 0 640 512" enable-background="new 0 0 640 512" xml:space="preserve">
<path d="M0,155.2c0-7.3,2.2-14.4,6.2-20.5L81.8,21.4C90.7,8,105.6,0,121.7,0h396.6c16.1,0,31,8,39.9,21.4l75.6,113.3
	c4,6.1,6.2,13.2,6.2,20.5c0,20.3-16.5,36.8-36.8,36.8H36.8C16.5,192,0,175.5,0,155.2L0,155.2z"/>
<path opacity="0.6" d="M64,224h64v160h192V224h64v240c0,26.5-21.5,48-48,48H112c-26.5,0-48-21.5-48-48V224z"/>
<path opacity="0.5" d="M512,224h64v256c0,17.7-14.3,32-32,32s-32-14.3-32-32V224z"/>
</svg>
