<?xml version="1.0" encoding="utf-8"?>
<!-- Generator: Adobe Illustrator 24.2.3, SVG Export Plug-In . SVG Version: 6.00 Build 0)  -->
<svg version="1.1" id="Layer_1" xmlns="http://www.w3.org/2000/svg" xmlns:xlink="http://www.w3.org/1999/xlink" x="0px" y="0px"
	 viewBox="0 0 576 512" enable-background="new 0 0 576 512" xml:space="preserve">
<g>
	<path d="M547.6,103.8l-57.3-90.7C485.2,5,476.1,0,466.4,0H109.6c-9.7,0-18.8,5-23.9,13.1l-57.3,90.7c-29.6,46.8-3.4,112,51.9,119.4
		c4,0.5,8.1,0.8,12.1,0.8c26.1,0,49.3-11.4,65.2-29c15.9,17.6,39.1,29,65.1,29c26.2,0,49.3-11.4,65.2-29c15.9,17.6,39.1,29,65.2,29
		c26.1,0,49.3-11.4,65.2-29c15.9,17.6,39.1,29,65.1,29c4.2,0,8.2-0.3,12.1-0.8C551,215.8,577.3,150.7,547.6,103.8z"/>
	<path opacity="0.5" d="M483.4,256c-12.3,0-24.2-1.9-35.4-5.3V384H128V250.6c-11.2,3.5-23.2,5.4-35.6,5.4c-5.5,0-11-0.4-16.3-1.1H76
		c-4.1-0.5-8.1-1.3-12-2.3V448c0,35.3,28.7,64,64,64h320c35.3,0,64-28.7,64-64V252.6c-4,1-8.9,1.8-12.3,2.3
		C494.4,255.6,489,256,483.4,256z"/>
</g>
</svg>
