<svg x="0px" y="0px"
	 viewBox="0 0 512 512" xml:space="preserve">

	<path opacity="0.7" d="M159.1,192l-15.1,0c-35.3,0-64,28.7-64,64.1v47.8c0,35.4,28.7,64.1,64,64.1h16c17.7,0,32-14.4,32-32.1
		L191.1,224C191.1,206.3,176.8,192,159.1,192z"/>
	<path opacity="0.3" d="M256,0C112.9,0,4.6,119.1,0,256l0,40c0,13.3,10.8,24,23.1,24c12.4,0,24.9-10.7,24.9-24v-40
		c0-114.7,93.3-207.8,208-207.8c114.7,0,208,93.1,208,207.8v144c0,22.1-17.9,40-40,40H313.3c-8.3-14.3-23.6-24-41.3-24h-30.2
		c-23.2,0-44.5,15.7-48.9,38.5c-5.9,30.7,17.5,57.5,46.2,57.5H272c17.7,0,33-9.7,41.3-24H424c48.6,0,88-39.4,88-88V256
		C507.4,119.1,399.1,0,256,0z"/>
	<path opacity="0.7" d="M368,368c35.3,0,64-28.7,64-64.1v-47.8c0-35.4-28.7-64.1-64-64.1h-16c-17.7,0-32,14.3-32,32v111.9
		c0,17.8,14.3,32.1,32,32.1H368z"/>
</svg>
