<?xml version="1.0" encoding="utf-8"?>
<!-- Generator: Adobe Illustrator 24.2.3, SVG Export Plug-In . SVG Version: 6.00 Build 0)  -->
<svg version="1.1" id="Layer_1" xmlns="http://www.w3.org/2000/svg" xmlns:xlink="http://www.w3.org/1999/xlink" x="0px" y="0px"
	 viewBox="0 0 24 24" enable-background="new 0 0 24 24" xml:space="preserve">
<path opacity="0.3" enable-background="new    " d="M20.6,4.4L12.2,2c-0.1,0-0.2,0-0.4,0L3.4,4.4C3.2,4.5,3,4.7,3,4.9v8.6
	c0,1.1,0.5,2.3,1.4,3.4c0.7,0.9,1.7,1.8,3,2.6c2.1,1.4,4.2,2.3,4.3,2.4c0.1,0,0.2,0.1,0.3,0.1c0.1,0,0.2,0,0.3-0.1
	c0.1,0,2.2-0.9,4.3-2.4c1.3-0.9,2.3-1.7,3-2.6c1-1.1,1.4-2.3,1.4-3.4V4.9C21,4.7,20.8,4.5,20.6,4.4z"/>
<path d="M10.6,12.3l-1-1c-0.3-0.3-0.8-0.3-1.1,0c-0.3,0.3-0.3,0.8,0,1l1.9,1.9c0.4,0.4,1,0.4,1.4,0l3.6-3.7c0.3-0.3,0.3-0.8,0-1
	c-0.3-0.3-0.8-0.3-1.1,0l-2.7,2.8C11.4,12.6,10.9,12.6,10.6,12.3z"/>
</svg>
