<?xml version="1.0" encoding="utf-8"?>
<!-- Generator: Adobe Illustrator 24.2.3, SVG Export Plug-In . SVG Version: 6.00 Build 0)  -->
<svg version="1.1" id="Layer_1" xmlns="http://www.w3.org/2000/svg" xmlns:xlink="http://www.w3.org/1999/xlink" x="0px" y="0px"
	 viewBox="0 0 576 512" enable-background="new 0 0 576 512" xml:space="preserve">
<g>
	<path opacity="0.5" d="M480,80c0-26.5-21.5-48-48-48H144c-26.5,0-48,21.5-48,48v304h384V80z M378.9,166.8l-88,112
		c-4,5.2-10,8.4-16.5,9.1c-0.8-0.8-1.7-0.8-3.3-0.8c-5.7,0-11.2-2-15.6-5.8l-56-48c-9.2-7.7-10.3-22.9-1.7-32.9
		c8.7-10.1,23.8-11.2,33.8-2.6l37,31.7l72.5-92.3c8.2-10.4,23.3-12.2,33.7-4.1C385.3,141.3,387.1,156.4,378.9,166.8z"/>
	<path d="M528,288h-16v112c0,8.8-7.2,16-16,16H80c-8.8,0-16-7.2-16-16V288H48c-26.5,0-48,21.5-48,48v96c0,26.5,21.5,48,48,48h480
		c26.5,0,48-21.5,48-48v-96C576,309.5,554.5,288,528,288z"/>
</g>
</svg>
