<?xml version="1.0" encoding="utf-8"?>
<!-- Generator: Adobe Illustrator 24.2.3, SVG Export Plug-In . SVG Version: 6.00 Build 0)  -->
<svg version="1.1" id="Layer_1" xmlns="http://www.w3.org/2000/svg" xmlns:xlink="http://www.w3.org/1999/xlink" x="0px" y="0px"
	 viewBox="0 0 512 512" enable-background="new 0 0 512 512" xml:space="preserve">
<path opacity="0.5" d="M35.2,171.1c-46.9,46-46.9,122.9,0,169.8l135.9,135.9c46,46.9,122.9,46.9,169.8,0l135.9-135.9
	c46.9-46.9,46.9-123.8,0-169.8L340.9,35.2c-46.9-46.9-123.8-46.9-169.8,0L35.2,171.1z M315.5,315.5c-32.9,32.8-86.1,32.8-118.9,0
	c-32.9-32.9-32.9-86.1,0-118.9c32.8-32.9,86-32.9,118.9,0C348.3,229.4,348.3,282.6,315.5,315.5z"/>
<circle stroke="#000000" stroke-width="1.4399" stroke-miterlimit="10" cx="257.7" cy="256.6" r="85.7"/>
</svg>
