<?xml version="1.0" encoding="utf-8"?>
<!-- Generator: Adobe Illustrator 27.0.0, SVG Export Plug-In . SVG Version: 6.00 Build 0)  -->
<svg version="1.1" id="Layer_1" xmlns="http://www.w3.org/2000/svg" xmlns:xlink="http://www.w3.org/1999/xlink" x="0px" y="0px"
	 viewBox="0 0 256 256" enable-background="new 0 0 256 256" xml:space="preserve">
<path opacity="0.75" enable-background="new    " d="M30.3,140.2h73.3c6.8,0,12.2-5.4,12.2-12.2V30.3c0-6.8-5.4-12.2-12.2-12.2H30.3
	c-6.8,0-12.2,5.4-12.2,12.2V128C18.1,134.8,23.5,140.2,30.3,140.2z"/>
<path opacity="0.25" enable-background="new    " d="M18.1,225.7c0,6.8,5.4,12.2,12.2,12.2h73.3c6.8,0,12.2-5.4,12.2-12.2v-48.9
	c0-6.8-5.4-12.2-12.2-12.2H30.3c-6.8,0-12.2,5.4-12.2,12.2C18.1,176.9,18.1,225.7,18.1,225.7z"/>
<path opacity="0.1" enable-background="new    " d="M140.2,225.7c0,6.8,5.4,12.2,12.2,12.2h73.3c6.8,0,12.2-5.4,12.2-12.2v-85.5
	c0-6.8-5.4-12.2-12.2-12.2h-73.3c-6.8,0-12.2,5.4-12.2,12.2V225.7z"/>
<path opacity="0.5" enable-background="new    " d="M152.5,103.5h73.3c6.8,0,12.2-5.4,12.2-12.2v-61c0-6.8-5.4-12.2-12.2-12.2h-73.3
	c-6.8,0-12.2,5.4-12.2,12.2v61.1C140.2,98.1,145.7,103.5,152.5,103.5z"/>
</svg>
