<?xml version="1.0" encoding="utf-8"?>
<!-- Generator: Adobe Illustrator 27.0.0, SVG Export Plug-In . SVG Version: 6.00 Build 0)  -->
<svg version="1.1" id="Layer_1" xmlns="http://www.w3.org/2000/svg" xmlns:xlink="http://www.w3.org/1999/xlink" x="0px" y="0px"
	 viewBox="0 0 256 256" enable-background="new 0 0 256 256" xml:space="preserve">
<path opacity="0.75" fill-rule="evenodd" clip-rule="evenodd" enable-background="new    " d="M31.8,18C24.1,18,18,24.1,18,31.8
	v68.7c0,7.6,6.1,13.8,13.8,13.8h68.7c7.6,0,13.8-6.1,13.8-13.8V31.8c0-7.6-6.1-13.8-13.8-13.8H31.8z"/>
<path opacity="0.25" fill-rule="evenodd" clip-rule="evenodd" enable-background="new    " d="M31.8,141.7
	c-7.6,0-13.8,6.1-13.8,13.8v68.7c0,7.6,6.1,13.8,13.8,13.8h68.7c7.6,0,13.8-6.1,13.8-13.8v-68.7c0-7.6-6.1-13.8-13.8-13.8H31.8z"/>
<path opacity="0.5" fill-rule="evenodd" clip-rule="evenodd" enable-background="new    " d="M155.5,18c-7.6,0-13.8,6.1-13.8,13.8
	v68.7c0,7.6,6.1,13.8,13.8,13.8h68.7c7.6,0,13.8-6.1,13.8-13.8V31.8c0-7.6-6.1-13.8-13.8-13.8H155.5z"/>
<path opacity="0.1" fill-rule="evenodd" clip-rule="evenodd" enable-background="new    " d="M155.5,141.7
	c-7.6,0-13.8,6.1-13.8,13.8v68.7c0,7.6,6.1,13.8,13.8,13.8h68.7c7.6,0,13.8-6.1,13.8-13.8v-68.7c0-7.6-6.1-13.8-13.8-13.8H155.5z"/>
<g id="slices" transform="translate(47.000000, 9.000000)">
</g>
</svg>
