<?xml version="1.0" encoding="utf-8"?>
<!-- Generator: Adobe Illustrator 27.0.0, SVG Export Plug-In . SVG Version: 6.00 Build 0)  -->
<svg version="1.1" id="Layer_1" xmlns="http://www.w3.org/2000/svg" xmlns:xlink="http://www.w3.org/1999/xlink" x="0px" y="0px"
	 viewBox="0 0 256 256" enable-background="new 0 0 256 256" xml:space="preserve">
<g opacity="0.75">
	<path d="M96.6,91.9c0-17.8,13.6-31.4,31.4-31.4s31.4,13.6,31.4,31.4s-13.6,31.4-31.4,31.4S96.6,109.7,96.6,91.9z M128,144.2
		c-48.1,0-62.7,34.5-62.7,34.5v17.8h125.5v-17.8C190.7,178.7,176.1,144.2,128,144.2z"/>
</g>
<g opacity="0.5">
	<g>
		<circle cx="196" cy="86.7" r="26.1"/>
	</g>
	<g>
		<path d="M196,133.7c-12.5,0-22,3.1-29.3,8.4c24,11.5,33.5,31.4,33.5,33.5v1H243V163C243,162,231.5,133.7,196,133.7z"/>
	</g>
</g>
<g opacity="0.25">
	<g>
		<circle cx="60" cy="86.7" r="26.1"/>
	</g>
	<g>
		<path d="M60,133.7c12.5,0,22,3.1,29.3,8.4c-24,11.5-33.5,31.4-33.5,33.5v1H13V163C13,162,24.5,133.7,60,133.7z"/>
	</g>
</g>
</svg>
