<?xml version="1.0" encoding="utf-8"?>
<!-- Generator: Adobe Illustrator 27.0.0, SVG Export Plug-In . SVG Version: 6.00 Build 0)  -->
<svg version="1.1" id="Layer_3" xmlns="http://www.w3.org/2000/svg" xmlns:xlink="http://www.w3.org/1999/xlink" x="0px" y="0px"
	 viewBox="0 0 256 256" enable-background="new 0 0 256 256" xml:space="preserve">
<path opacity="0.25" enable-background="new    " d="M92.5,102c0.5,0,1-0.1,1.5-0.1c-0.4-2.9-0.7-5.8-0.7-8.7
	c0-24.4,14.4-45.4,35.1-55.2c-7.4-12.1-20.7-20.2-35.9-20.2c-23.3,0-42.1,18.9-42.1,42.1C50.4,83.2,69.3,102,92.5,102z"/>
<circle opacity="0.75" cx="154.2" cy="93.2" r="46.8"/>
<path opacity="0.75" d="M195,139.3c-10.9,9.6-25.1,15.5-40.8,15.5c-15.6,0-29.8-5.8-40.7-15.4c-28.3,15.5-47.7,46.5-47.7,82.2
	c0,5.6,0.5,11.1,1.4,16.5h174.3c0.9-5.3,1.4-10.8,1.4-16.5C243,185.8,223.5,154.7,195,139.3z"/>
<path opacity="0.25" enable-background="new    " d="M104.8,129c-3-4.2-5.5-8.9-7.4-13.8c-1.6,0.1-3.2,0.2-4.9,0.2
	c-14,0-26.8-5.3-36.6-13.9c-25.5,14-42.9,41.9-42.9,74.1c0,5.1,0.5,10,1.3,14.8h43.4C64,163.9,81.4,141.6,104.8,129z"/>
</svg>
