<?xml version="1.0" encoding="utf-8"?>
<!-- Generator: Adobe Illustrator 27.0.0, SVG Export Plug-In . SVG Version: 6.00 Build 0)  -->
<svg version="1.1" id="Layer_1" xmlns="http://www.w3.org/2000/svg" xmlns:xlink="http://www.w3.org/1999/xlink" x="0px" y="0px"
	 viewBox="0 0 256 256" enable-background="new 0 0 256 256" xml:space="preserve">
<g opacity="0.25">
	<g>
		<path d="M174.3,143.6c-15.6,0-28.1,4.2-37.5,9.4c14.6,12.5,20.8,27.1,21.9,28.1l1,2.1v22.9H243v-20.8
			C242,185.2,225.3,143.6,174.3,143.6z"/>
	</g>
	<g>
		<circle cx="174.3" cy="86.4" r="36.4"/>
	</g>
</g>
<g opacity="0.75">
	<path d="M44.2,86.4c0-19.8,16.7-36.4,36.4-36.4s36.4,16.7,36.4,36.4s-16.7,36.4-36.4,36.4S44.2,106.1,44.2,86.4z M80.6,143.6
		c-51,0-67.6,41.6-67.6,41.6v20.8h135.3v-20.8C148.3,185.2,131.6,143.6,80.6,143.6z"/>
</g>
</svg>
